<svg xmlns="http://www.w3.org/2000/svg" viewBox="0 0 800 800"><title>thrive-mascot-RGB</title><path d="M160,800H360a99.92,99.92,0,0,0-95.82-99.79A400,400,0,0,1,167,763.53,99.55,99.55,0,0,0,160,800Z" fill="#31b7c8"/><path d="M300,523.92c-110.46,0-200-89.54-200-200H243.08A199.07,199.07,0,0,1,200,200C200,89.54,289.54,0,400,0h0C252,0,122.82,80.47,53.65,200A398,398,0,0,0,0,400V800a398.06,398.06,0,0,0,167-36.47,400,400,0,0,0,97.22-63.32A402.07,402.07,0,0,0,346.35,600,398,398,0,0,0,400,400a199,199,0,0,1-100-26.82Z" fill="#31b7c8"/><path d="M600,0h0c0,110.45-89.54,200-200,200H800C800,89.54,710.46,0,600,0Z" fill="#31b7c8"/><polygon points="400 0 400 0 400 0 400 0" fill="#31b7c8"/><path d="M600,0H400V200h0C510.46,200,600,110.45,600,0Z" fill="#31b7c8"/><path d="M400,0h0C289.54,0,200,89.54,200,200a199.07,199.07,0,0,0,43.08,123.92H300v49.26A199,199,0,0,0,400,400h0V244a44,44,0,0,1-44-44h44ZM309.63,149.4c-27.71,0-50-21.69-50-49.4s22.29-49.4,50-49.4,50,21.69,50,49.4S337.34,149.4,309.63,149.4Z" fill="#fff"/><path d="M309.63,50.6c-27.71,0-50,21.69-50,49.4s22.29,49.4,50,49.4,50-21.69,50-49.4S337.34,50.6,309.63,50.6ZM312.9,137a30.8,30.8,0,1,1,31.17-30.8A30.78,30.78,0,0,1,312.9,137Z" fill="#31b7c8"/><path d="M312.9,75.45a30.8,30.8,0,1,0,31.17,30.79A30.78,30.78,0,0,0,312.9,75.45Zm16.15,26a6.2,6.2,0,1,1,6.27-6.2A6.2,6.2,0,0,1,329.05,101.49Z" fill="#31b7c8"/><path d="M329.05,89.09a6.2,6.2,0,1,0,6.27,6.2A6.2,6.2,0,0,0,329.05,89.09Z" fill="#fff"/><path d="M300,523.92v-200H100C100,434.38,189.54,523.92,300,523.92Z" fill="#31b7c8"/><path d="M356,200a44,44,0,0,0,44,44V200Z" fill="#31b7c8"/></svg>
