<svg xmlns="http://www.w3.org/2000/svg" viewBox="0 0 700 220" role="img" aria-labelledby="title desc">
  <title id="title">Thrive Admin toucan lockup</title>
  <desc id="desc">Toucan mark with Thrive Admin wordmark</desc>
  <rect width="700" height="220" fill="none"/>
  <g transform="translate(0 10)">
    <path d="M42 45c45 0 81 36 81 81v74H42z" fill="#000"/>
    <path d="M80 45a71 71 0 0 1 71 71v4h-40c-17 0-31-14-31-31z" fill="#f8f8f8"/>
    <path d="M124 45h70a48 48 0 0 1 0 96h-70z" fill="#31b7c8"/>
    <path d="M160 45h34a48 48 0 0 1 48 48h-48a34 34 0 0 1-34-34z" fill="#c9439b"/>
    <path d="M61 112h52v52a52 52 0 0 1-52-52z" fill="#6c3ed1"/>
    <circle cx="101" cy="74" r="11" fill="#ffce3d"/>
    <circle cx="101" cy="74" r="5" fill="#000"/>
    <path d="M88 171h49a24 24 0 0 1-49 0z" fill="#49cfbf"/>
  </g>
  <text x="270" y="120" fill="#11141a" font-size="64" font-family="Manrope, Segoe UI, Arial, sans-serif" font-weight="800">Thrive Admin</text>
</svg>
